Coordinates
version=1
nRows=35
nColumns=18
inDegrees=yes

Units are S.I. units (second, meters, Newtons, ...)
If the header above contains a line with 'inDegrees', this indicates whether rotational values are in degrees (yes) or radians (no).

endheader
time	ground_thorax_rot_x	ground_thorax_rot_y	ground_thorax_rot_z	ground_thorax_tx	ground_thorax_ty	ground_thorax_tz	clav_prot	clav_elev	scapula_abduction	scapula_elevation	scapula_upward_rot	scapula_winging	plane_elv	shoulder_elv	axial_rot	elbow_flexion	pro_sup
      0.00000000	      0.51728761	     -7.11287576	    -12.55075580	     -0.01772968	      0.00220788	      0.01670359	    -16.74083105	    -20.79593380	    -14.79854936	    -14.54378486	      7.70225119	     23.42441150	    -26.00000000	     27.80515973	     41.11410119	     24.52620560	   -173.89924359
      0.02000000	      0.51728761	     -6.89724490	    -12.59160957	     -0.01749123	      0.00211426	      0.01683235	    -17.00070037	    -20.80365619	    -15.20458419	    -14.58349073	      7.77603060	     23.48665748	    -26.00000000	     27.58321541	     41.61385848	     24.45555341	   -173.91573367
      0.04000000	      0.51728761	     -6.72012556	    -12.61118411	     -0.01730167	      0.00198489	      0.01692220	    -17.15683375	    -20.77634822	    -15.47264389	    -14.57641849	      7.79644575	     23.50773882	    -26.00000000	     27.44413525	     41.72233432	     24.44094640	   -173.93180881
      0.06000000	      0.51728761	     -6.53837321	    -12.62900753	     -0.01718121	      0.00189944	      0.01700615	    -17.31491101	    -20.76687006	    -15.74477407	    -14.58109465	      7.80834101	     23.54168104	    -26.00000000	     27.32426661	     41.85171509	     24.43329843	   -173.94575628
      0.08000000	      0.51728761	     -6.37107751	    -12.65255515	     -0.01703386	      0.00180842	      0.01713421	    -17.52709236	    -20.78083899	    -16.10220478	    -14.60837760	      7.82546221	     23.60305233	    -26.00000000	     27.19312892	     41.99437293	     24.45360808	   -173.95611290
      0.10000000	      0.51728761	     -6.24386052	    -12.65993432	     -0.01707986	      0.00174643	      0.01715910	    -17.57243244	    -20.75637874	    -16.19140668	    -14.59082741	      7.82097888	     23.60017862	    -26.00000000	     27.12872994	     41.98493981	     24.43604592	   -174.04341031
      0.12000000	      0.51728761	     -6.11374100	    -12.64400970	     -0.01715391	      0.00171466	      0.01723910	    -17.67702292	    -20.75084662	    -16.39193348	    -14.58619350	      7.79652711	     23.62853313	    -26.00000000	     27.06291259	     42.07195981	     24.43729466	   -174.02462384
      0.14000000	      0.51728761	     -6.00440627	    -12.64191116	     -0.01730898	      0.00172653	      0.01732024	    -17.77350307	    -20.77033900	    -16.56389243	    -14.60356471	      7.78392272	     23.66807147	    -26.00000000	     27.01555681	     42.12588721	     24.44657515	   -174.19251670
      0.16000000	      0.51728761	     -5.96349669	    -12.62957142	     -0.01751648	      0.00170708	      0.01736700	    -17.78472320	    -20.76350821	    -16.59240265	    -14.59609531	      7.77305312	     23.66874061	    -26.00000000	     26.99628364	     42.17390432	     24.45701368	   -174.10938952
      0.18000000	      0.51728761	     -5.92983877	    -12.61162396	     -0.01782676	      0.00169696	      0.01741956	    -17.77794736	    -20.74672642	    -16.59118231	    -14.58022749	      7.76344537	     23.65823052	    -26.00000000	     26.98685452	     42.17382381	     24.49541345	   -174.02270792
      0.20000000	      0.51728761	     -5.90771132	    -12.55584384	     -0.01822436	      0.00177308	      0.01745805	    -17.77648567	    -20.75312465	    -16.61154019	    -14.57503386	      7.72431143	     23.66945552	    -26.00000000	     27.00084619	     42.26366864	     24.47337032	   -174.09980652
      0.22000000	      0.51728761	     -5.89136898	    -12.52242684	     -0.01864596	      0.00179492	      0.01750805	    -17.76706248	    -20.74063265	    -16.59999044	    -14.56414587	      7.72181090	     23.65963310	    -26.00000000	     26.98647839	     42.31445751	     24.46620606	   -173.98682924
      0.24000000	      0.51728761	     -5.94832167	    -12.53597160	     -0.01900751	      0.00184494	      0.01759283	    -17.70792726	    -20.77892355	    -16.49387579	    -14.58702742	      7.70839475	     23.67160001	    -26.00000000	     27.05009251	     42.18019214	     24.52222144	   -173.92298732
      0.26000000	      0.51728761	     -5.95406675	    -12.50962482	     -0.01947846	      0.00190333	      0.01763869	    -17.67401778	    -20.79143935	    -16.44321589	    -14.58973533	      7.68871020	     23.67473971	    -26.00000000	     27.08747771	     42.20270224	     24.52783742	   -173.87624552
      0.28000000	      0.51728761	     -5.97650604	    -12.46167290	     -0.01997739	      0.00194687	      0.01767989	    -17.61426662	    -20.77225934	    -16.35171661	    -14.56814139	      7.67589194	     23.64966422	    -26.00000000	     27.12283255	     42.25713800	     24.53241693	   -173.97871938
      0.30000000	      0.51728761	     -6.01304506	    -12.44334983	     -0.02045843	      0.00199845	      0.01777404	    -17.55222132	    -20.78260760	    -16.24952916	    -14.56868840	      7.66060855	     23.64318027	    -26.00000000	     27.16177013	     42.04010076	     24.54746430	   -173.98194891
      0.32000000	      0.51728761	     -5.96927581	    -12.43671853	     -0.02088125	      0.00204628	      0.01777392	    -17.57002697	    -20.80494633	    -16.28386578	    -14.58333610	      7.64613064	     23.66437271	    -26.00000000	     27.19859737	     42.24946988	     24.55074988	   -173.94933543
      0.34000000	      0.51728761	     -5.96402526	    -12.43103455	     -0.02127760	      0.00206323	      0.01786972	    -17.56982162	    -20.80685070	    -16.27946679	    -14.58613548	      7.65141041	     23.66492846	    -26.00000000	     27.20194280	     42.23409053	     24.58713638	   -173.94884938
      0.36000000	      0.51728761	     -5.94453513	    -12.42163114	     -0.02170608	      0.00209962	      0.01785601	    -17.52295248	    -20.80125030	    -16.20381767	    -14.57704478	      7.64337946	     23.65075641	    -26.00000000	     27.23749485	     42.23979297	     24.55469016	   -173.94445489
      0.38000000	      0.51728761	     -5.91310350	    -12.42797476	     -0.02206575	      0.00212171	      0.01789305	    -17.52004038	    -20.80427804	    -16.19541925	    -14.58023570	      7.64728185	     23.65114279	    -26.00000000	     27.24134821	     42.23648304	     24.54942161	   -173.95830213
      0.40000000	      0.51728761	     -5.88443383	    -12.43941994	     -0.02238791	      0.00213285	      0.01792693	    -17.51110998	    -20.80678359	    -16.17842533	    -14.58192949	      7.64828232	     23.65020669	    -26.00000000	     27.24660396	     42.23364381	     24.54608579	   -173.96869792
      0.42000000	      0.51728761	     -5.84210719	    -12.47172476	     -0.02266232	      0.00215739	      0.01797054	    -17.51480406	    -20.83886405	    -16.18860971	    -14.60185996	      7.62820134	     23.67550677	    -26.00000000	     27.27029545	     42.15593201	     24.55370019	   -173.95554795
      0.44000000	      0.51728761	     -5.80143134	    -12.47302494	     -0.02293965	      0.00213828	      0.01798874	    -17.51752043	    -20.80210774	    -16.18931121	    -14.57934880	      7.65092775	     23.64838947	    -26.00000000	     27.21268221	     42.20074133	     24.52828622	   -173.94984398
      0.46000000	      0.51728761	     -5.73799580	    -12.47748193	     -0.02319586	      0.00213231	      0.01801356	    -17.55049793	    -20.78934599	    -16.25338137	    -14.57023464	      7.64670424	     23.64971042	    -26.00000000	     27.16552039	     42.21511227	     24.51415398	   -173.95149560
      0.48000000	      0.51728761	     -5.72957895	    -12.51671891	     -0.02338392	      0.00211546	      0.01802246	    -17.52575659	    -20.79982553	    -16.20952188	    -14.57596601	      7.64287484	     23.65039415	    -26.00000000	     27.15894246	     42.11866254	     24.50731198	   -173.94111710
      0.50000000	      0.51728761	     -5.72751078	    -12.54143591	     -0.02354201	      0.00207637	      0.01806997	    -17.51827784	    -20.79540449	    -16.21034911	    -14.56688602	      7.62257094	     23.64992522	    -26.00000000	     27.14684078	     42.08434316	     24.57292734	   -173.94302070
      0.52000000	      0.51728761	     -5.68359822	    -12.58040663	     -0.02372048	      0.00208005	      0.01805515	    -17.55283044	    -20.83380671	    -16.26708423	    -14.59584883	      7.61171768	     23.68545099	    -26.00000000	     27.10583680	     41.96219777	     24.48725225	   -173.92175811
      0.54000000	      0.51728761	     -5.64015010	    -12.60049044	     -0.02389296	      0.00205563	      0.01806160	    -17.59973194	    -20.86218593	    -16.37105494	    -14.60841165	      7.56464298	     23.72493804	    -26.00000000	     27.08879339	     41.84844474	     24.48071255	   -173.89018552
      0.56000000	      0.51728761	     -5.63612150	    -12.59904512	     -0.02408585	      0.00204509	      0.01804647	    -17.60647807	    -20.88758477	    -16.42153635	    -14.60971350	      7.49177935	     23.75711950	    -26.00000000	     27.10988663	     41.64037354	     24.46725914	   -173.86207941
      0.58000000	      0.51728761	     -5.69214810	    -12.68626480	     -0.02407590	      0.00204044	      0.01807628	    -17.61505915	    -21.00642705	    -16.44913704	    -14.68377873	      7.41896864	     23.84951324	    -26.00000000	     27.19449283	     41.37551680	     24.48400764	   -173.84710986
      0.60000000	      0.51728761	     -5.72929353	    -12.80671200	     -0.02411811	      0.00200040	      0.01804665	    -17.64394801	    -21.14360099	    -16.48114349	    -14.78405083	      7.38781481	     23.95090678	    -26.00000000	     27.28808808	     41.16617380	     24.52705354	   -173.79206043
      0.62000000	      0.51728761	     -5.78092382	    -12.72434726	     -0.02434393	      0.00193904	      0.01805220	    -17.66811861	    -21.09425936	    -16.55748567	    -14.73877911	      7.35553308	     23.93200125	    -26.00000000	     27.25571327	     41.18436428	     24.44413484	   -173.77187619
      0.64000000	      0.51728761	     -5.68254188	    -12.66928139	     -0.02464804	      0.00188450	      0.01797631	    -17.80678717	    -21.10723540	    -16.86963596	    -14.72700162	      7.23996980	     23.99846523	    -26.00000000	     27.31388312	     41.03365242	     24.44276210	   -173.45026895
      0.66000000	      0.51728761	     -5.82428109	    -12.70414254	     -0.02475329	      0.00188551	      0.01795834	    -17.74983136	    -21.21331218	    -16.80037879	    -14.78140514	      7.14330170	     24.07099014	    -26.00000000	     27.54575559	     40.52980664	     24.42450304	   -173.31492052
      0.68000000	      0.51728761	     -5.81173574	    -12.67401100	     -0.02496386	      0.00182822	      0.01789566	    -17.88420993	    -21.22186212	    -17.03836498	    -14.79404634	      7.13628991	     24.11214112	    -26.00000000	     27.60923777	     40.65571527	     24.38308857	   -172.98020049
